<?xml version="1.0" encoding="UTF-8"?>
<svg version="1.1" xmlns="http://www.w3.org/2000/svg" width="512" height="512">
<path d="M0 0 C2.05902554 0.98535136 4.09934851 2.01024551 6.125 3.0625 C7.44492372 3.71302902 8.76526202 4.36271728 10.0859375 5.01171875 C28.72645379 14.35883024 45.60246909 26.9359368 60.91796875 41.0390625 C62.84630517 42.80698863 64.81347978 44.50096046 66.8125 46.1875 C95.7662836 71.55148523 95.7662836 71.55148523 97.625 84.5625 C97.25149389 97.12164302 86.08587212 108.28647378 77.765625 116.6875 C76.125 118.0625 76.125 118.0625 74 118.984375 C71.96441102 119.91285027 71.96441102 119.91285027 71.234375 122.015625 C70.83758775 124.55161311 70.66231639 126.52855051 71.125 129.0625 C72.83365196 130.87707918 74.67824869 132.01139951 76.77734375 133.3515625 C81.86731807 137.06106125 86.02059179 142.4485988 87.87109375 148.50390625 C88.49747182 156.26332439 84.19729366 163.69747189 80.125 170.0625 C77.0724108 173.09585019 74.37527429 173.71489392 70.125 174.0625 C57.80368991 173.06651405 45.73170898 168.75440022 33.95336914 165.19970703 C33.29333893 165.00213806 32.63330872 164.80456909 31.95327759 164.60101318 C30.13801165 164.05662612 28.32467577 163.50581508 26.51147461 162.95458984 C11.40053433 158.97395573 -7.19225319 159.24408717 -21.07421875 166.91796875 C-33.56658051 174.85779954 -38.36933174 187.93495973 -41.5 201.875 C-41.97242326 204.26809487 -42.43102146 206.66396506 -42.875 209.0625 C-43.08253906 210.10535156 -43.29007813 211.14820313 -43.50390625 212.22265625 C-48.75507103 242.44439481 -40.39046002 269.70951535 -31.95654297 298.37231445 C-30.91341152 301.93144126 -29.88977841 305.49521679 -28.875 309.0625 C-28.2459375 308.216875 -27.616875 307.37125 -26.96875 306.5 C0.34963407 270.11490062 44.59603414 253.81510414 88.125 246.0625 C89.03717285 245.89588867 89.9493457 245.72927734 90.88916016 245.55761719 C117.88582364 240.82891784 148.22129913 240.72756222 175.125 246.0625 C176.00559082 246.23410645 176.88618164 246.40571289 177.79345703 246.58251953 C214.19320939 253.92017453 248.21362659 270.77393807 269.59179688 302.00415039 C277.7898414 314.36170022 282.92124845 327.61325689 286.125 342.0625 C286.44597656 343.46435547 286.44597656 343.46435547 286.7734375 344.89453125 C292.24052443 372.58651506 288.86383275 400.42388006 275.125 425.0625 C274.57972656 426.05121094 274.03445313 427.03992188 273.47265625 428.05859375 C268.75595016 436.00434068 262.59661684 442.5345894 256.125 449.0625 C255.34511719 449.85527344 254.56523437 450.64804687 253.76171875 451.46484375 C209.21748189 494.00882127 135.13201499 506.05696104 75.796875 506.265625 C74.4478146 506.27264414 73.09875454 506.27973098 71.74969482 506.28688049 C67.4581251 506.30630205 63.16660923 506.31131479 58.875 506.3125 C57.77915085 506.31316278 57.77915085 506.31316278 56.66116333 506.31383896 C35.00347872 506.32071316 13.61865698 506.05086107 -7.875 503.0625 C-9.22987467 502.88298874 -10.58485943 502.70430684 -11.93994141 502.52636719 C-41.92343206 498.55087418 -73.72123517 493.84694269 -101.7421875 482.1015625 C-114.54672568 476.78175599 -127.07674007 475.80599104 -140.79833984 475.03588867 C-184.17418565 472.57690429 -184.17418565 472.57690429 -195.4609375 461.06640625 C-201.99295389 451.80970899 -201.16582878 438.01087704 -200.75 427.1875 C-200.7099585 426.12926025 -200.66991699 425.07102051 -200.62866211 423.98071289 C-200.11042582 413.60050631 -198.60399099 403.42024436 -197.09152222 393.15087891 C-195.27277629 380.66259579 -194.30634382 368.2941976 -193.8125 355.6875 C-191.73739167 304.33426302 -179.21005203 254.9493375 -163.56768799 206.22314453 C-162.92516972 204.21899026 -162.28780798 202.21327648 -161.65185547 200.20703125 C-156.39964381 183.76849818 -149.71997635 168.42469761 -141.875 153.0625 C-141.44574219 152.21107422 -141.01648438 151.35964844 -140.57421875 150.48242188 C-121.22075883 112.17485914 -97.22692134 74.35863299 -68.875 42.0625 C-68.24207031 41.3303125 -67.60914063 40.598125 -66.95703125 39.84375 C-65.27587916 37.9048469 -63.57920161 35.98116293 -61.875 34.0625 C-61.16730469 33.26199219 -60.45960938 32.46148437 -59.73046875 31.63671875 C-52.4461092 23.45887727 -45.04069672 16.02638688 -36.484375 9.171875 C-33.77588584 6.98237777 -31.1719834 4.70477432 -28.60546875 2.3515625 C-20.31083792 -3.82728214 -9.3912547 -3.74871907 0 0 Z " fill="#FEDB5C" transform="translate(211.875,3.9375)"/>
<path d="M0 0 C4.03344727 2.64908613 6.52348741 5.38883407 7.96875 10.0859375 C8.1406485 17.11806964 5.75512015 22.2632481 2.15625 28.1484375 C1.42245117 29.37735718 1.42245117 29.37735718 0.67382812 30.63110352 C-20.23615213 64.98179058 -49.61397587 90.86504907 -89.0703125 100.93359375 C-112.21307596 106.45779688 -136.99615657 105.70898219 -160.03125 100.0859375 C-160.90297852 99.87694824 -161.77470703 99.66795898 -162.67285156 99.45263672 C-179.8485103 95.22366136 -195.84765276 88.45033034 -211.53125 80.3359375 C-212.21928711 79.98362061 -212.90732422 79.63130371 -213.61621094 79.26831055 C-218.81442296 76.48597604 -224.13625681 72.94318917 -226.03125 67.0859375 C-226.5163324 61.84704757 -225.88756117 58.51814449 -223.03125 54.0859375 C-219.65882852 51.04253275 -217.41536167 49.20866661 -212.859375 48.8046875 C-208.50058239 49.12492532 -205.52037041 50.50992133 -201.78125 52.5859375 C-169.89386465 69.32860075 -130.35678094 81.18410274 -94.33203125 72.125 C-79.3259991 67.40120763 -66.17956224 61.34212323 -54.03125 51.0859375 C-53.23074219 50.41949219 -52.43023437 49.75304687 -51.60546875 49.06640625 C-40.4205677 39.41225371 -32.55039966 28.18404831 -24.890625 15.69921875 C-11.92879842 -5.36795929 -11.92879842 -5.36795929 0 0 Z " fill="#EF9645" transform="translate(431.03125,352.9140625)"/>
<path d="M0 0 C4.77954079 1.17059891 7.87861404 3.22203609 11.78125 6.12890625 C12.46509766 6.59876953 13.14894531 7.06863281 13.85351562 7.55273438 C18.64042496 11.05803362 18.64042496 11.05803362 19.53515625 14.9453125 C18.68137417 18.64503485 17.20177366 20.72750151 14.84375 23.69140625 C11.88248023 26.9553817 11.88248023 26.9553817 10.84375 30.94140625 C20.48185261 34.21967244 30.1004515 37.40559734 39.92578125 40.08203125 C42.65002608 40.88435235 45.22844118 41.83920586 47.84375 42.94140625 C47.84375 45.58140625 47.84375 48.22140625 47.84375 50.94140625 C44.80099213 51.90740735 42.95230611 51.94954772 39.90478516 51.03271484 C39.1436441 50.80852875 38.38250305 50.58434265 37.59829712 50.35336304 C36.78468719 50.10140167 35.97107727 49.84944031 35.1328125 49.58984375 C34.28705658 49.33393463 33.44130066 49.07802551 32.56991577 48.81436157 C30.78135538 48.2695959 28.99440443 47.71952206 27.20898438 47.16455078 C24.49085567 46.32324829 21.76574824 45.50838751 19.0390625 44.6953125 C17.29898952 44.1617505 15.55938944 43.62664334 13.8203125 43.08984375 C13.01075104 42.85002777 12.20118958 42.61021179 11.36709595 42.36312866 C5.51451945 40.50924317 1.01785023 38.12316529 -2.546875 32.90625 C-6.10900882 24.50285248 -8.63071632 14.10549436 -7.15625 4.94140625 C-5.19449456 1.01789536 -4.4585509 -0.08277013 0 0 Z " fill="#EF9745" transform="translate(235.15625,81.05859375)"/>
</svg>
