<?xml version="1.0" encoding="UTF-8"?>
<svg version="1.1" xmlns="http://www.w3.org/2000/svg" width="512" height="512">
<path d="M0 0 C0.98097656 0.77859375 1.96195312 1.5571875 2.97265625 2.359375 C19.26292006 15.62224465 34.00043194 30.74675791 46 48 C46.60279785 48.85174805 46.60279785 48.85174805 47.21777344 49.72070312 C70.35035241 82.6998599 82.46848421 121.23344653 82.375 161.375 C82.37418427 162.69510071 82.37418427 162.69510071 82.37335205 164.04187012 C82.23394282 213.22321703 62.93080039 260.72983993 29.21875 296.62890625 C27.29801148 298.68152646 25.48754319 300.7800953 23.6875 302.9375 C-19.47332652 352.20693538 -89.85130898 377.16959214 -153.46923828 381.80151367 C-210.56990698 385.01150148 -276.28217532 374.86988872 -324 341 C-331.30705617 333.67832972 -335.17748071 324.25269955 -335.375 314.0625 C-335.41238281 313.36576172 -335.44976562 312.66902344 -335.48828125 311.95117188 C-335.67156191 300.65904705 -328.8499047 290.44777152 -323.4375 280.9375 C-322.82253662 279.84896729 -322.20757324 278.76043457 -321.57397461 277.63891602 C-316.51395662 268.7533966 -311.14793757 260.0991746 -305.60986328 251.50634766 C-280.39320378 217.48499384 -280.39320378 217.48499384 -268.1875 178.6875 C-268.78455257 175.68435344 -268.78455257 175.68435344 -272 174 C-284.8245947 174.2068483 -296.39888742 180.96420193 -307.54736328 186.73242188 C-310.30700218 188.15866567 -313.07355287 189.57107864 -315.83984375 190.984375 C-325.88920912 196.14221373 -335.84997283 201.39998307 -345.625 207.0625 C-387.63388396 231.33483721 -387.63388396 231.33483721 -404.04296875 228.66796875 C-413.49223877 226.04631499 -420.0072712 216.7329831 -424.68408203 208.65356445 C-426.74907393 204.48948338 -427.66908854 200.44878579 -428.375 195.875 C-428.53291016 194.87855469 -428.69082031 193.88210938 -428.85351562 192.85546875 C-436.28279096 138.50276173 -422.27257874 85.16869442 -389.1875 41.5 C-384.15473564 34.99690349 -378.69950969 28.9218371 -373 23 C-372.39881348 22.37158203 -371.79762695 21.74316406 -371.17822266 21.09570312 C-362.85193838 12.43619982 -354.37287187 4.3643885 -344.68701172 -2.75732422 C-343.02898451 -3.97864961 -341.39123502 -5.22377916 -339.75390625 -6.47265625 C-261.54303 -65.1860389 -145.94979569 -73.96404761 0 0 Z M-239.15234375 248.7578125 C-243.02298155 253.45495013 -244.63404391 258.4840519 -245.5 264.4375 C-243.69489226 277.29889268 -236.65713196 286.38836019 -227.05859375 294.73046875 C-209.66603217 307.63606042 -186.56380329 314.86165336 -164.91699219 311.6953125 C-153.69011561 309.6606682 -144.63804002 305.7612812 -137 297 C-133.27461788 291.54497619 -132.22794449 286.59555994 -133 280 C-136.39086414 266.15056695 -145.96694839 256.1494275 -157.91308594 248.84863281 C-181.38188381 235.14450813 -217.4294795 227.8628614 -239.15234375 248.7578125 Z " fill="#D89D82" transform="translate(430,102)"/>
<path d="M0 0 C9.08538938 6.74991782 16.02454047 16.9435234 18.19140625 28.203125 C19.26978907 40.8818259 17.2755368 52.27293319 8.90625 62.3671875 C0.81790032 71.02669627 -8.1196366 77.3957119 -20.24609375 78.40625 C-33.76806428 78.65360312 -45.03862758 75.36211947 -55.09375 66.09765625 C-65.42554989 55.1865031 -67.31574094 44.33799857 -67.08203125 29.88671875 C-66.62337104 18.4224842 -60.14764123 10.07770375 -51.99609375 2.453125 C-37.08266426 -10.04741044 -16.14635026 -10.3300711 0 0 Z " fill="#FECB4D" transform="translate(422.80859375,305.796875)"/>
<path d="M0 0 C10.08248037 6.22241897 17.69458133 15.76295584 20.5859375 27.34765625 C22.90917684 42.22953844 19.27395 54.03721428 10.8125 66.125 C2.66184966 75.29767546 -8.08620607 79.30200073 -20.04296875 80.23828125 C-32.85595077 80.54069946 -42.4797434 76.64168527 -52 68 C-62.09508372 56.3864822 -65.01433143 45.27251618 -64.2265625 30.12109375 C-63.03223179 18.93968731 -55.40711958 9.51307346 -47.078125 2.53515625 C-33.34169027 -7.6122476 -14.82028665 -8.074501 0 0 Z " fill="#DC2E44" transform="translate(434,176)"/>
<path d="M0 0 C10.22184549 6.11273152 16.36007849 16.03557492 19.94140625 27.25390625 C22.27711262 39.51080349 19.6859044 50.67846782 13.0703125 61.0234375 C6.40648534 70.26192515 -2.62026302 76.4097609 -13.6484375 79.40625 C-27.9382426 80.5572071 -39.11474186 78.29824589 -50.6484375 69.40625 C-58.92699743 61.81757006 -64.35977953 52.68796529 -64.88671875 41.3671875 C-65.21890131 27.68513903 -63.24248502 17.74281037 -53.6484375 7.40625 C-38.97953355 -7.43903356 -18.30053581 -9.74517696 0 0 Z " fill="#5C913B" transform="translate(164.6484375,119.59375)"/>
<path d="M0 0 C10.06820592 6.55426455 17.57425794 15.30747159 21.57421875 26.67578125 C24.237698 39.50890857 22.52154215 52.30048647 15.296875 63.359375 C9.82999446 70.71053182 4.00128506 75.12898988 -4.42578125 78.67578125 C-5.50085938 79.22298828 -5.50085938 79.22298828 -6.59765625 79.78125 C-16.58215825 82.93933143 -30.58859434 82.04250929 -39.8515625 77.3515625 C-51.18913509 69.97095758 -57.9824823 60.68945379 -61.9765625 47.9140625 C-64.34368504 36.11961713 -62.26116543 25.66953775 -56.07421875 15.44140625 C-43.68146778 -2.42077113 -20.06957334 -10.16362131 0 0 Z " fill="#226698" transform="translate(304.42578125,89.32421875)"/>
</svg>
